# xmcd
#
# Track frame offsets: 
#        150
#        11657
#        51359
#        73168
#        147481
#        167209
#
# Disc length: 2994 seconds
#
# Revision: 0
# Processed by: cddbd v1.5.2PL0 Copyright (c) Steve Scherf et al.
# Submitted via: ExactAudioCopy v0.99pb5
#
DISCID=590bb006
DTITLE=The Allman Brothers Band - 03-2309 Beacon Theater (Disc3)
DYEAR=2009
DGENRE=Blues
TTITLE0=Leave My Blues At Home
TTITLE1=JaMaBuBu
TTITLE2=Leave My Blues At Home - respise
TTITLE3=Les Brers In A Minor
TTITLE4=Crowd Noise
TTITLE5=Statesboro Blues
EXTD=
EXTT0=
EXTT1=
EXTT2=
EXTT3=
EXTT4=
EXTT5=
PLAYORDER=
